<?xml version="1.0" encoding="UTF-8"?>
<svg width="20px" height="20px" viewBox="0 0 20 20" version="1.1" xmlns="http://www.w3.org/2000/svg" xmlns:xlink="http://www.w3.org/1999/xlink">
    <title>icon / close</title>
    <defs>
        <path d="M12.707,7.293 C12.316,6.902 11.684,6.902 11.293,7.293 L10,8.586 L8.707,7.293 C8.316,6.902 7.684,6.902 7.293,7.293 C6.902,7.684 6.902,8.316 7.293,8.707 L8.586,10 L7.293,11.293 C6.902,11.684 6.902,12.316 7.293,12.707 C7.488,12.902 7.744,13 8,13 C8.256,13 8.512,12.902 8.707,12.707 L10,11.414 L11.293,12.707 C11.488,12.902 11.744,13 12,13 C12.256,13 12.512,12.902 12.707,12.707 C13.098,12.316 13.098,11.684 12.707,11.293 L11.414,10 L12.707,8.707 C13.098,8.316 13.098,7.684 12.707,7.293 M10,18 C5.589,18 2,14.411 2,10 C2,5.589 5.589,2 10,2 C14.411,2 18,5.589 18,10 C18,14.411 14.411,18 10,18 M10,0 C4.486,0 0,4.486 0,10 C0,15.514 4.486,20 10,20 C15.514,20 20,15.514 20,10 C20,4.486 15.514,0 10,0" id="path-1"></path>
    </defs>
    <g id="icon-/-close" stroke="none" stroke-width="1" fill="none" fill-rule="evenodd">
        <mask id="mask-2" fill="white">
            <use xlink:href="#path-1"></use>
        </mask>
        <use fill="currentColor" fill-rule="nonzero" xlink:href="#path-1"></use>
    </g>
</svg>